<svg width="30" height="30" viewBox="0 0 30 30" fill="none" xmlns="http://www.w3.org/2000/svg">
<rect width="30" height="30" rx="15" fill="#ED1E5A"/>
<path d="M11.4909 10.2454L14.9998 13.7543L18.4904 10.2636C18.5676 10.1815 18.6604 10.1159 18.7635 10.0706C18.8666 10.0253 18.9778 10.0013 19.0904 10C19.3315 10 19.5627 10.0958 19.7332 10.2662C19.9037 10.4367 19.9994 10.6679 19.9994 10.909C20.0015 11.0205 19.9809 11.1312 19.9387 11.2343C19.8965 11.3375 19.8336 11.431 19.754 11.509L16.2179 14.9996L19.754 18.5358C19.9038 18.6823 19.9917 18.8808 19.9994 19.0903C19.9994 19.3313 19.9037 19.5626 19.7332 19.733C19.5627 19.9035 19.3315 19.9993 19.0904 19.9993C18.9746 20.0041 18.859 19.9848 18.751 19.9425C18.643 19.9002 18.545 19.836 18.4632 19.7538L14.9998 16.245L11.5 19.7448C11.4232 19.8241 11.3315 19.8874 11.2301 19.9311C11.1286 19.9748 11.0196 19.998 10.9092 19.9993C10.6681 19.9993 10.4369 19.9035 10.2664 19.733C10.0959 19.5626 10.0001 19.3313 10.0001 19.0903C9.99803 18.9788 10.0187 18.8681 10.0609 18.7649C10.1031 18.6618 10.166 18.5683 10.2456 18.4903L13.7817 14.9996L10.2456 11.4635C10.0958 11.317 10.0079 11.1185 10.0001 10.909C10.0001 10.6679 10.0959 10.4367 10.2664 10.2662C10.4369 10.0958 10.6681 10 10.9092 10C11.1273 10.0027 11.3364 10.0909 11.4909 10.2454Z" fill="white"/>
</svg>
