<svg width="30" height="30" viewBox="0 0 30 30" fill="none" xmlns="http://www.w3.org/2000/svg">
<rect width="30" height="30" rx="15" fill="#36C5F0"/>
<path fill-rule="evenodd" clip-rule="evenodd" d="M21.6948 10.3081C21.8918 10.5051 22.0025 10.7724 22.0025 11.0511C22.0025 11.3298 21.8918 11.5971 21.6948 11.7941L13.8173 19.6716C13.7132 19.7757 13.5896 19.8583 13.4536 19.9146C13.3176 19.971 13.1718 20 13.0245 20C12.8773 20 12.7315 19.971 12.5955 19.9146C12.4595 19.8583 12.3359 19.7757 12.2318 19.6716L8.31792 15.7584C8.21754 15.6615 8.13748 15.5455 8.0824 15.4173C8.02732 15.2891 7.99832 15.1512 7.99711 15.0116C7.9959 14.8721 8.02249 14.7337 8.07533 14.6045C8.12818 14.4753 8.20622 14.358 8.30489 14.2593C8.40357 14.1606 8.52092 14.0826 8.65008 14.0298C8.77924 13.9769 8.91763 13.9503 9.05718 13.9515C9.19673 13.9527 9.33464 13.9817 9.46286 14.0368C9.59108 14.0919 9.70705 14.172 9.804 14.2723L13.0242 17.4925L20.208 10.3081C20.3056 10.2104 20.4215 10.1329 20.549 10.0801C20.6766 10.0272 20.8133 10 20.9514 10C21.0894 10 21.2262 10.0272 21.3537 10.0801C21.4813 10.1329 21.5972 10.2104 21.6948 10.3081Z" fill="white"/>
</svg>
