<svg width="18" height="16" viewBox="0 0 18 16" fill="none" xmlns="http://www.w3.org/2000/svg">
<path d="M15.75 0.921349H2.25C1.65346 0.921987 1.08153 1.15949 0.659715 1.58174C0.237896 2.00399 0.000638126 2.5765 0 3.17365V12.8264C0.000638126 13.4235 0.237896 13.996 0.659715 14.4183C1.08153 14.8405 1.65346 15.078 2.25 15.0787H15.75C16.3465 15.078 16.9185 14.8405 17.3403 14.4183C17.7621 13.996 17.9994 13.4235 18 12.8264V3.17365C17.9994 2.5765 17.7621 2.00399 17.3403 1.58174C16.9185 1.15949 16.3465 0.921987 15.75 0.921349ZM15.1803 4.64689L9.39455 9.15149C9.28173 9.23928 9.1429 9.28695 9 9.28695C8.8571 9.28695 8.71827 9.23928 8.60545 9.15149L2.81973 4.64689C2.75176 4.5955 2.69466 4.53111 2.65176 4.45744C2.60886 4.38377 2.58102 4.30231 2.56984 4.21777C2.55867 4.13324 2.56439 4.04733 2.58667 3.96503C2.60895 3.88273 2.64735 3.80568 2.69964 3.73836C2.75192 3.67105 2.81705 3.6148 2.89124 3.5729C2.96543 3.531 3.0472 3.50428 3.13179 3.49428C3.21639 3.48429 3.30212 3.49122 3.38402 3.51468C3.46591 3.53814 3.54233 3.57766 3.60884 3.63094L9 7.82826L14.3912 3.63094C14.526 3.52904 14.6954 3.48434 14.8629 3.50652C15.0304 3.52871 15.1824 3.61598 15.2861 3.74948C15.3898 3.88298 15.4368 4.05197 15.417 4.2199C15.3972 4.38784 15.3122 4.54123 15.1803 4.64689Z" fill="#CCCCCC"/>
</svg>
