<svg width="17" height="16" viewBox="0 0 17 16" fill="none" xmlns="http://www.w3.org/2000/svg">
<path d="M16.6006 8V14.2222C16.6006 14.6937 16.4133 15.1459 16.0799 15.4793C15.7465 15.8127 15.2943 16 14.8228 16H2.37836C1.90687 16 1.45468 15.8127 1.12128 15.4793C0.787887 15.1459 0.600586 14.6937 0.600586 14.2222V8H16.6006ZM12.1561 0C12.3919 0 12.618 0.0936505 12.7847 0.260349C12.9514 0.427048 13.045 0.653141 13.045 0.888889V1.77778H14.8228C15.2943 1.77778 15.7465 1.96508 16.0799 2.29848C16.4133 2.63187 16.6006 3.08406 16.6006 3.55556V6.22222H0.600586V3.55556C0.600586 3.08406 0.787887 2.63187 1.12128 2.29848C1.45468 1.96508 1.90687 1.77778 2.37836 1.77778H4.15614V0.888889C4.15614 0.653141 4.24979 0.427048 4.41649 0.260349C4.58319 0.0936505 4.80928 0 5.04503 0C5.28078 0 5.50687 0.0936505 5.67357 0.260349C5.84027 0.427048 5.93392 0.653141 5.93392 0.888889V1.77778H11.2673V0.888889C11.2673 0.653141 11.3609 0.427048 11.5276 0.260349C11.6943 0.0936505 11.9204 0 12.1561 0Z" fill="#1C3C84"/>
</svg>
