<svg width="21" height="20" viewBox="0 0 21 20" fill="none" xmlns="http://www.w3.org/2000/svg">
<path fill-rule="evenodd" clip-rule="evenodd" d="M6.15614 4.44444C6.15614 3.2657 6.62439 2.13524 7.45789 1.30175C8.29138 0.468252 9.42185 0 10.6006 0C11.7793 0 12.9098 0.468252 13.7433 1.30175C14.5768 2.13524 15.045 3.2657 15.045 4.44444C15.045 5.62318 14.5768 6.75365 13.7433 7.58714C12.9098 8.42064 11.7793 8.88889 10.6006 8.88889C9.42185 8.88889 8.29138 8.42064 7.45789 7.58714C6.62439 6.75365 6.15614 5.62318 6.15614 4.44444ZM6.15614 11.1111C4.68272 11.1111 3.26964 11.6964 2.22777 12.7383C1.1859 13.7802 0.600586 15.1932 0.600586 16.6667C0.600586 17.5507 0.951776 18.3986 1.5769 19.0237C2.20202 19.6488 3.04986 20 3.93392 20H17.2673C18.1513 20 18.9992 19.6488 19.6243 19.0237C20.2494 18.3986 20.6006 17.5507 20.6006 16.6667C20.6006 15.1932 20.0153 13.7802 18.9734 12.7383C17.9315 11.6964 16.5185 11.1111 15.045 11.1111H6.15614Z" fill="#1C3C84"/>
</svg>
