<svg width="20" height="20" viewBox="0 0 20 20" fill="none" xmlns="http://www.w3.org/2000/svg">
<path d="M19.6007 2.39727V14.3991C19.6001 14.513 19.5754 14.6255 19.5285 14.729C19.4815 14.8325 19.4133 14.9246 19.3283 14.9992C17.8204 16.3224 16.3786 16.7995 15.004 16.7995C13.1379 16.7995 11.3951 15.9254 9.77372 15.1142C7.15365 13.799 4.87602 12.6599 2.23227 14.7762V19.1999C2.23227 19.4121 2.14909 19.6156 2.00104 19.7656C1.85298 19.9157 1.65218 20 1.44279 20C1.23341 20 1.03261 19.9157 0.884552 19.7656C0.736497 19.6156 0.65332 19.4121 0.65332 19.1999V2.39727C0.654077 2.28328 0.678858 2.17077 0.726001 2.06728C0.773145 1.96378 0.841564 1.87169 0.926676 1.79718C4.47931 -1.32131 7.66779 0.275939 10.4783 1.68516C13.1862 3.04337 15.5339 4.21755 18.2941 1.79718C18.4082 1.69695 18.5482 1.63197 18.6977 1.60996C18.8471 1.58795 18.9996 1.60982 19.1371 1.67298C19.2746 1.73614 19.3914 1.83794 19.4736 1.96632C19.5557 2.09469 19.5998 2.24425 19.6007 2.39727Z" fill="#36C5F0"/>
</svg>
