<svg width="18" height="19" viewBox="0 0 18 19" fill="none" xmlns="http://www.w3.org/2000/svg">
<path d="M2.68566 1.10194L9.00157 7.41785L15.2848 1.13467C15.4235 0.986943 15.5907 0.868769 15.7763 0.787231C15.9619 0.705693 16.162 0.66247 16.3647 0.660156C16.7986 0.660156 17.2148 0.832546 17.5217 1.1394C17.8285 1.44626 18.0009 1.86244 18.0009 2.2964C18.0047 2.49701 17.9675 2.69628 17.8916 2.88198C17.8156 3.06769 17.7025 3.23591 17.5591 3.37632L11.1941 9.65951L17.5591 16.0245C17.8288 16.2883 17.987 16.6456 18.0009 17.0226C18.0009 17.4566 17.8285 17.8728 17.5217 18.1796C17.2148 18.4865 16.7986 18.6589 16.3647 18.6589C16.1561 18.6675 15.9481 18.6327 15.7537 18.5567C15.5594 18.4806 15.383 18.365 15.2357 18.2171L9.00157 11.9012L2.70203 18.2007C2.56377 18.3435 2.39861 18.4575 2.21606 18.5362C2.03352 18.6148 1.83721 18.6565 1.63847 18.6589C1.20451 18.6589 0.78832 18.4865 0.481465 18.1796C0.174609 17.8728 0.00221935 17.4566 0.00221935 17.0226C-0.00159555 16.822 0.035624 16.6227 0.111594 16.437C0.187564 16.2513 0.300682 16.0831 0.444006 15.9427L6.809 9.65951L0.444006 3.29451C0.174328 3.03068 0.0161923 2.67341 0.00221935 2.2964C0.00221935 1.86244 0.174609 1.44626 0.481465 1.1394C0.78832 0.832546 1.20451 0.660156 1.63847 0.660156C2.03116 0.665065 2.4075 0.823781 2.68566 1.10194Z" fill="#CCCCCC"/>
</svg>
