<svg width="22" height="19" viewBox="0 0 22 19" fill="none" xmlns="http://www.w3.org/2000/svg">
<path d="M21.7718 9.82146L13.9472 17.6461C13.8378 17.7556 13.6983 17.8303 13.5464 17.8605C13.3946 17.8907 13.2371 17.8752 13.0941 17.816C12.951 17.7567 12.8288 17.6563 12.7428 17.5275C12.6568 17.3987 12.611 17.2473 12.6111 17.0925V13.2027C7.02631 13.5196 3.19714 17.1414 2.12223 18.2887C1.95344 18.4689 1.7321 18.5914 1.48971 18.6385C1.24731 18.6857 0.996212 18.6552 0.772144 18.5514C0.548076 18.4476 0.362456 18.2758 0.2417 18.0604C0.120944 17.845 0.0712054 17.597 0.099562 17.3517C0.462429 14.1964 2.19069 11.1614 4.96648 8.80621C7.27181 6.85005 10.074 5.60887 12.6111 5.39174V1.44324C12.611 1.28839 12.6568 1.13699 12.7428 1.0082C12.8288 0.879411 12.951 0.779026 13.0941 0.719753C13.2371 0.660479 13.3946 0.644983 13.5464 0.675225C13.6983 0.705468 13.8378 0.780089 13.9472 0.889643L21.7718 8.71427C21.8446 8.78694 21.9023 8.87324 21.9417 8.96823C21.981 9.06322 22.0013 9.16504 22.0013 9.26786C22.0013 9.37069 21.981 9.47251 21.9417 9.5675C21.9023 9.66249 21.8446 9.74879 21.7718 9.82146Z" fill="#CCCCCC"/>
</svg>
