<svg width="19" height="20" viewBox="0 0 19 20" fill="none" xmlns="http://www.w3.org/2000/svg">
<path d="M19.0001 2.39727V14.3991C18.9995 14.513 18.9748 14.6255 18.9279 14.729C18.8809 14.8325 18.8127 14.9246 18.7277 14.9992C17.2198 16.3224 15.7781 16.7995 14.4034 16.7995C12.5373 16.7995 10.7945 15.9254 9.17313 15.1142C6.55306 13.799 4.27543 12.6599 1.63168 14.7762V19.1999C1.63168 19.4121 1.54851 19.6156 1.40045 19.7656C1.2524 19.9157 1.05159 20 0.842208 20C0.632827 20 0.432021 19.9157 0.283966 19.7656C0.135911 19.6156 0.0527344 19.4121 0.0527344 19.1999V2.39727C0.0534913 2.28328 0.0782716 2.17077 0.125415 2.06728C0.172559 1.96378 0.240978 1.87169 0.32609 1.79718C3.87872 -1.32131 7.06721 0.275939 9.87773 1.68516C12.5856 3.04337 14.9333 4.21755 17.6935 1.79718C17.8076 1.69695 17.9477 1.63197 18.0971 1.60996C18.2465 1.58795 18.399 1.60982 18.5365 1.67298C18.674 1.73614 18.7908 1.83794 18.873 1.96632C18.9551 2.09469 18.9993 2.24425 19.0001 2.39727Z" fill="#36C5F0"/>
</svg>
