<svg width="18" height="16" viewBox="0 0 18 16" fill="none" xmlns="http://www.w3.org/2000/svg">
<path d="M15.75 0.921387H2.25C1.65346 0.922025 1.08153 1.15953 0.659715 1.58178C0.237896 2.00402 0.000638126 2.57653 0 3.17369V12.8264C0.000638126 13.4235 0.237896 13.9961 0.659715 14.4183C1.08153 14.8406 1.65346 15.0781 2.25 15.0787H15.75C16.3465 15.0781 16.9185 14.8406 17.3403 14.4183C17.7621 13.9961 17.9994 13.4235 18 12.8264V3.17369C17.9994 2.57653 17.7621 2.00402 17.3403 1.58178C16.9185 1.15953 16.3465 0.922025 15.75 0.921387ZM15.1803 4.64693L9.39455 9.15153C9.28173 9.23932 9.1429 9.28699 9 9.28699C8.8571 9.28699 8.71827 9.23932 8.60545 9.15153L2.81973 4.64693C2.75176 4.59554 2.69466 4.53114 2.65176 4.45748C2.60886 4.38381 2.58102 4.30234 2.56984 4.21781C2.55867 4.13328 2.56439 4.04737 2.58667 3.96507C2.60895 3.88276 2.64735 3.80572 2.69964 3.7384C2.75192 3.67108 2.81705 3.61484 2.89124 3.57294C2.96543 3.53104 3.0472 3.50431 3.13179 3.49432C3.21639 3.48432 3.30212 3.49126 3.38402 3.51472C3.46591 3.53818 3.54233 3.5777 3.60884 3.63098L9 7.8283L14.3912 3.63098C14.526 3.52907 14.6954 3.48438 14.8629 3.50656C15.0304 3.52874 15.1824 3.61602 15.2861 3.74952C15.3898 3.88302 15.4368 4.05201 15.417 4.21994C15.3972 4.38788 15.3122 4.54126 15.1803 4.64693Z" fill="#CCCCCC"/>
</svg>
