<svg width="132" height="50" viewBox="0 0 132 50" fill="none" xmlns="http://www.w3.org/2000/svg">
<path d="M100.201 21.538C100.107 21.9635 100.013 22.3558 99.9206 22.7482C99.9151 22.7711 99.9146 22.7954 99.9135 22.819C99.8653 23.8472 99.745 24.8797 99.8047 25.9015C99.8285 26.3102 99.86 26.7411 99.9191 27.1571C99.9902 27.6586 100.092 28.1571 100.206 28.6508C100.333 29.1981 100.464 29.747 100.641 30.2793C100.79 30.7281 101.015 31.1507 101.192 31.5909C101.468 32.2777 101.713 32.9776 102.007 33.6562C102.164 34.0198 102.39 34.3549 102.598 34.6948C102.771 34.9774 102.97 35.2444 103.146 35.5257C103.273 35.7308 103.347 35.9789 103.505 36.1543C104.178 36.9036 104.802 37.6973 105.466 38.4534C105.954 39.0102 106.559 39.4082 107.05 39.9458C107.423 40.3534 107.97 40.5992 108.43 40.9299C108.718 41.1372 108.973 41.3951 109.274 41.5808C109.542 41.7465 109.855 41.8384 110.143 41.9732C110.662 42.2155 111.165 42.4976 111.697 42.703C112.189 42.8928 112.712 43.0018 113.22 43.1502C113.694 43.2887 114.167 43.4326 114.641 43.5725C114.675 43.5824 114.712 43.5793 114.747 43.5814C115.585 43.6295 116.421 43.6952 117.259 43.7205C118.05 43.7443 118.842 43.707 119.633 43.7302C120.668 43.7607 121.482 44.2279 121.969 45.141C122.163 45.5056 122.339 45.9214 122.292 46.3778C122.282 46.4816 122.37 46.5931 122.399 46.7045C122.42 46.7822 122.436 46.8683 122.424 46.946C122.385 47.1972 122.353 47.4523 122.28 47.6945C122.191 47.9892 122.087 48.2843 121.946 48.5565C121.834 48.7723 121.677 48.9754 121.503 49.1462C121.166 49.4776 120.787 49.7215 120.314 49.8772C119.975 49.9885 119.662 49.981 119.339 49.9861C118.308 50.0023 117.277 50.0071 116.246 49.9855C115.756 49.9753 115.265 49.9129 114.778 49.8425C114.264 49.7679 113.749 49.6783 113.245 49.5527C112.836 49.4509 112.443 49.2835 112.042 49.1505C111.856 49.089 111.667 49.0374 111.479 48.9864C110.849 48.816 110.203 48.6906 109.594 48.4666C109.008 48.2513 108.455 47.9418 107.894 47.6608C107.405 47.4156 106.905 47.1835 106.446 46.8896C105.825 46.4918 105.109 46.2628 104.563 45.7168C104.214 45.3679 103.697 45.1937 103.304 44.8811C102.798 44.48 102.34 44.0192 101.863 43.5828C101.405 43.164 100.924 42.7671 100.498 42.3179C99.9375 41.7269 99.3893 41.1184 98.8942 40.4727C98.335 39.7436 97.8248 38.975 97.325 38.203C97.0933 37.8451 96.9473 37.4327 96.7429 37.0557C96.5536 36.7067 96.3335 36.3745 96.1358 36.0299C95.9969 35.7878 95.8611 35.5425 95.7449 35.289C95.6108 34.9966 95.4866 34.6981 95.3817 34.3941C95.1807 33.8119 95.0034 33.2215 94.8027 32.6391C94.6825 32.2904 94.5318 31.9522 94.4041 31.6059C94.3366 31.4226 94.2762 31.2346 94.2356 31.0439C94.1751 30.7603 94.1488 30.4692 94.0824 30.1873C94.0034 29.8516 93.897 29.5223 93.8035 29.1899C93.7972 29.1674 93.8006 29.1423 93.7984 29.1185C93.7505 28.5944 93.7766 28.0494 93.6359 27.5516C93.455 26.9117 93.5594 26.2779 93.5059 25.6442C93.4867 25.4179 93.324 25.1679 93.3829 24.9771C93.6004 24.2726 93.3976 23.5456 93.5386 22.8593C93.6163 22.4812 93.6066 22.113 93.6601 21.744C93.7346 21.231 93.825 20.7181 93.9493 20.2152C94.0613 19.7621 94.2364 19.3251 94.3676 18.8763C94.4355 18.6439 94.4515 18.3961 94.5212 18.1644C94.6707 17.668 94.8349 17.1758 95.0022 16.6851C95.1458 16.2642 95.2798 15.8379 95.4582 15.4317C95.7069 14.8652 95.9818 14.3094 96.2661 13.7597C96.5822 13.1484 96.9084 12.5413 97.2555 11.9472C97.4647 11.5891 97.7191 11.2571 97.9586 10.9172C98.2474 10.5071 98.5421 10.1011 98.8327 9.69224C98.8449 9.67519 98.8326 9.63939 98.8457 9.62459C99.2818 9.12834 99.7181 8.63224 100.158 8.13903C100.507 7.7468 100.837 7.33291 101.218 6.97392C101.869 6.36081 102.534 5.75877 103.231 5.20008C103.63 4.88103 104.116 4.67425 104.537 4.37986C104.67 4.28677 104.792 4.16651 104.923 4.06306C105.87 3.31169 106.961 2.81645 108.016 2.26092C108.478 2.01715 109.012 1.90953 109.509 1.73017C109.756 1.64121 109.997 1.53344 110.237 1.42743C110.428 1.34308 110.609 1.23309 110.805 1.1616C111.226 1.00743 111.649 0.851836 112.081 0.733307C112.381 0.650929 112.702 0.644788 113.007 0.576472C113.354 0.498676 113.69 0.365092 114.039 0.300545C114.45 0.224696 114.871 0.206472 115.284 0.146708C116.764 -0.0669915 118.253 0.0214439 119.738 0.00312899C120.212 -0.00270812 120.598 0.228024 120.997 0.435955C121.555 0.727324 121.803 1.2841 122.112 1.77594C122.244 1.98715 122.23 2.28986 122.286 2.55017C122.322 2.71659 122.368 2.88077 122.403 3.04739C122.42 3.12776 122.444 3.21724 122.425 3.29268C122.339 3.63633 122.261 3.98443 122.139 4.31567C122.011 4.662 121.873 5.01539 121.673 5.32172C121.371 5.78286 120.892 6.00842 120.383 6.21143C119.832 6.43148 119.281 6.31884 118.731 6.3362C117.916 6.36193 117.1 6.32507 116.285 6.34892C115.713 6.36567 115.138 6.40948 114.573 6.49596C114.052 6.57565 113.534 6.70278 113.028 6.85426C111.995 7.16387 111.025 7.61819 110.065 8.11764C109.394 8.46682 108.77 8.87101 108.145 9.2847C107.79 9.51938 107.415 9.72363 107.068 9.96916C106.924 10.0712 106.847 10.263 106.712 10.3832C106.193 10.8457 105.63 11.2644 105.146 11.7607C104.792 12.1235 104.542 12.5864 104.236 12.9969C103.839 13.527 103.389 14.022 103.042 14.5819C102.626 15.2534 102.29 15.9749 101.929 16.6796C101.686 17.1537 101.438 17.6273 101.232 18.1179C101.051 18.5495 100.928 19.005 100.776 19.4489C100.638 19.8498 100.48 20.2445 100.362 20.6509C100.281 20.9276 100.253 21.2196 100.201 21.538Z" fill="#1C3C84"/>
<path d="M31.7931 36.3068C31.3168 36.3789 30.8662 36.4271 30.4275 36.5274C29.0577 36.8408 27.6722 36.6322 26.2963 36.6446C25.5884 36.651 24.8523 36.5054 24.1761 36.2843C23.3956 36.0291 22.6076 35.7681 21.8886 35.3266C21.3809 35.0148 20.8877 34.6965 20.3987 34.3554C19.7304 33.8891 19.0532 33.4564 18.5837 32.7799C18.1133 32.102 17.4873 31.5383 17.1694 30.7451C16.9938 30.3069 16.6771 29.9265 16.4904 29.4915C16.2969 29.0406 16.145 28.5633 16.0453 28.0829C15.9299 27.5262 15.9551 26.9358 15.8048 26.3917C15.557 25.4944 15.6805 24.593 15.6964 23.6996C15.7091 22.9872 15.8863 22.2735 16.0323 21.5691C16.1437 21.0316 16.2921 20.4973 16.4788 19.9814C16.5934 19.6648 16.8169 19.3887 16.9815 19.0888C17.1994 18.6917 17.3983 18.2838 17.6234 17.8909C17.7473 17.6747 17.8919 17.4655 18.0553 17.2778C18.4514 16.8226 18.8256 16.3372 19.2795 15.9465C19.868 15.4398 20.5118 14.9931 21.1577 14.5591C21.5936 14.2662 22.0626 14.0151 22.5389 13.7927C22.8586 13.6434 23.2205 13.5874 23.557 13.4709C23.9162 13.3465 24.2678 13.1998 24.6228 13.0633C24.6447 13.0549 24.6674 13.0467 24.6903 13.0438C25.0838 12.9946 25.4812 12.9662 25.8703 12.8938C27.0237 12.6791 28.188 12.744 29.3471 12.7675C29.8222 12.7772 30.294 12.9437 30.7679 13.0359C30.8259 13.0472 30.8875 13.038 30.9472 13.0419C31.4856 13.077 31.9853 13.2405 32.4805 13.4529C32.9123 13.638 33.3759 13.7477 33.8179 13.9112C33.9924 13.9757 34.1506 14.0894 34.309 14.1918C34.6421 14.4071 35.0521 14.4865 35.3299 14.8059C35.443 14.9359 35.6164 15.0178 35.7711 15.1062C36.3656 15.4462 36.8978 15.8702 37.3318 16.3939C37.8781 17.0532 38.5084 17.6484 38.8578 18.4642C39.0243 18.8528 39.3801 19.165 39.5223 19.5581C39.8142 20.3648 40.1823 21.1527 40.219 22.0422C40.2347 22.4257 40.3969 22.8025 40.4855 23.184C40.5041 23.2639 40.4933 23.3511 40.4933 23.4348C40.4938 24.1191 40.512 24.804 40.4878 25.4874C40.4679 26.0505 40.4403 26.6197 40.3384 27.1719C40.2178 27.8256 40.0682 28.4846 39.8332 29.104C39.4927 30.0011 39.1138 30.8797 38.478 31.6391C37.9485 32.2716 37.5509 33.0182 36.8972 33.5454C36.5008 33.865 36.07 34.1417 35.6556 34.439C35.3825 34.635 35.1295 34.8687 34.835 35.0234C34.2514 35.33 33.6477 35.599 33.0475 35.8731C32.7159 36.0244 32.3759 36.1577 32.0366 36.2911C31.9735 36.316 31.8953 36.3025 31.7931 36.3068ZM28.2999 31.1207C28.6939 31.0773 29.0933 31.2 29.4872 30.9904C29.7212 30.8659 30.0676 30.9451 30.2915 30.8117C30.9288 30.432 31.6425 30.1756 32.1783 29.6229C32.5526 29.2367 32.9928 28.91 33.2207 28.4034C33.399 28.0071 33.5809 27.6098 33.7191 27.1988C33.8686 26.7538 34.0703 26.2923 34.0697 25.8382C34.0686 24.956 34.1936 24.0722 33.9711 23.1815C33.8446 22.675 33.739 22.1629 33.5038 21.7055C33.2409 21.1943 32.9138 20.7112 32.572 20.2474C32.3559 19.9541 32.0938 19.6709 31.7945 19.4692C31.4457 19.2342 31.0411 19.0751 30.6475 18.9156C30.1575 18.7169 29.661 18.4266 29.155 18.3984C28.1783 18.3439 27.1858 18.2623 26.2237 18.6467C25.5422 18.9189 24.8163 19.0796 24.3079 19.6673C24.2937 19.6838 24.2891 19.7172 24.2732 19.7224C23.6957 19.9142 23.4404 20.4244 23.1624 20.8914C22.811 21.4818 22.4514 22.0722 22.3542 22.7815C22.2982 23.1903 22.0924 23.5901 22.0955 23.9929C22.1008 24.6978 22.0095 25.4 22.1925 26.1178C22.3177 26.6087 22.4508 27.0879 22.6432 27.5531C22.752 27.8163 22.8561 28.0846 22.997 28.3307C23.1908 28.669 23.3653 29.0444 23.6421 29.3029C24.0621 29.6952 24.5454 30.0285 25.0335 30.3365C25.7422 30.7837 26.5137 31.0843 27.3655 31.1189C27.6526 31.1305 27.9406 31.1207 28.2999 31.1207Z" fill="#1C3C84"/>
<path d="M105.519 23.5496C105.521 23.4416 105.525 23.3336 105.524 23.2257C105.521 22.6906 105.621 22.179 105.799 21.6716C105.937 21.2782 105.978 20.851 106.107 20.4539C106.212 20.1336 106.377 19.8318 106.53 19.529C106.798 18.9986 107.02 18.4326 107.364 17.957C107.797 17.3599 108.33 16.835 108.828 16.2863C109.106 15.9805 109.377 15.6629 109.692 15.3993C110.009 15.1341 110.362 14.9036 110.725 14.7038C111.358 14.3549 112.001 14.0227 112.657 13.7198C113.021 13.5516 113.423 13.4658 113.801 13.3267C114.247 13.1631 114.715 13.1133 115.169 13.0085C115.502 12.9316 115.835 12.9797 116.143 12.8881C117.124 12.5968 118.119 12.7904 119.104 12.7718C119.629 12.7619 120.159 12.9337 120.685 13.0344C121.159 13.1251 121.635 13.2144 122.102 13.3354C122.405 13.4141 122.702 13.5318 122.988 13.6612C123.575 13.9259 124.158 14.1986 124.731 14.4912C125.037 14.6473 125.36 14.8083 125.602 15.0422C126.509 15.9158 127.441 16.774 128.253 17.7313C128.719 18.2801 129.044 18.9613 129.294 19.6747C129.478 20.1972 129.725 20.6998 129.844 21.2485C129.935 21.6623 129.992 22.0892 130.136 22.4839C130.327 23.0063 130.126 23.5778 130.296 24.052C130.627 24.9718 130.21 25.835 130.241 26.727C130.259 27.2298 129.959 27.7375 129.848 28.253C129.634 29.2474 129.171 30.1404 128.752 31.051C128.636 31.304 128.474 31.5492 128.285 31.7536C127.572 32.5262 126.871 33.3168 126.099 34.0277C125.662 34.4304 125.047 34.637 124.599 35.0313C124.159 35.4188 123.615 35.5605 123.131 35.8316C122.806 36.0137 122.403 36.0574 122.035 36.1627C121.837 36.2193 121.639 36.2748 121.441 36.3316C121.221 36.3946 121.004 36.4981 120.781 36.515C119.919 36.5805 119.056 36.6325 118.192 36.6623C117.533 36.6851 116.872 36.6953 116.215 36.6583C115.632 36.6255 115.039 36.5757 114.476 36.4327C113.749 36.248 113.012 36.0338 112.345 35.701C111.72 35.3893 111.103 35.0432 110.517 34.6324C109.841 34.1583 109.161 33.6864 108.612 33.0863C107.899 32.3062 107.208 31.4909 106.808 30.4771C106.561 29.8533 106.238 29.2602 105.984 28.639C105.879 28.382 105.876 28.0851 105.809 27.8105C105.73 27.4841 105.629 27.1631 105.546 26.8375C105.523 26.7471 105.529 26.6488 105.525 26.554C105.508 26.1756 105.491 25.7972 105.481 25.3736C105.498 24.7355 105.508 24.1425 105.519 23.5496ZM122.866 20.9219C122.858 20.8753 122.866 20.8143 122.839 20.7844C122.659 20.582 122.475 20.3832 122.286 20.1891C121.999 19.8945 121.745 19.5465 121.408 19.3285C121.03 19.0841 120.573 18.9621 120.153 18.7816C119.555 18.5243 118.948 18.3273 118.279 18.3663C117.826 18.3928 117.36 18.318 116.916 18.3899C116.464 18.4632 116.04 18.7014 115.589 18.7947C114.747 18.9685 114.135 19.5082 113.601 20.0942C112.98 20.7768 112.414 21.5292 112.206 22.4782C112.086 23.0226 111.836 23.5527 111.805 24.0985C111.764 24.8133 111.88 25.5372 111.929 26.2571C111.93 26.2803 111.936 26.3041 111.945 26.3255C112.13 26.7786 112.34 27.2231 112.495 27.6863C112.667 28.2001 112.968 28.6227 113.301 29.0345C113.854 29.7204 114.519 30.2803 115.321 30.6309C115.839 30.857 116.404 31.0708 116.957 31.0944C117.729 31.1274 118.523 31.265 119.294 30.9835C119.566 30.8842 119.897 30.9297 120.151 30.8058C120.827 30.476 121.501 30.1262 122.045 29.5889C122.319 29.3179 122.582 29.0313 122.82 28.7288C122.96 28.5519 123.047 28.3323 123.149 28.1274C123.284 27.8553 123.454 27.5903 123.531 27.3014C123.649 26.8524 123.935 26.4429 123.87 25.9471C123.859 25.8659 123.85 25.7674 123.885 25.6999C124.162 25.1606 124.025 24.5849 123.978 24.0405C123.931 23.4793 123.706 22.935 123.585 22.3776C123.469 21.8449 123.216 21.3915 122.866 20.9219Z" fill="#36C5F0"/>
<path d="M75.7091 13.3488C75.9146 13.4489 76.0855 13.5807 76.2716 13.6081C77.068 13.7253 77.7711 14.0553 78.45 14.4678C78.6404 14.5835 78.8924 14.5952 79.0887 14.7042C79.5812 14.9776 79.6751 14.9828 79.3562 15.4933C79.0104 16.047 78.6958 16.6301 78.197 17.0798C78.0038 17.254 77.8993 17.5469 77.6877 17.6764C77.2783 17.9272 76.9838 18.3014 76.4274 18.4103C75.5674 18.5788 74.7257 18.4622 73.8787 18.5043C73.4906 18.5235 73.0612 18.5013 72.7136 18.3513C72.2497 18.1511 71.7971 18.2839 71.3443 18.2283C70.9292 18.1774 70.5095 18.0707 70.099 18.098C69.4923 18.1383 68.8944 18.297 68.2883 18.3653C67.6462 18.4376 67.1316 18.7424 66.6543 19.1452C66.2014 19.5274 66.1752 20.1485 66.4956 20.6306C66.8834 21.214 67.4749 21.3905 68.0681 21.6221C68.6666 21.8557 69.2859 21.906 69.9102 21.979C70.5043 22.0486 71.0938 22.1612 71.6838 22.2638C72.1942 22.3525 72.7075 22.4334 73.2103 22.5556C73.6651 22.6661 74.107 22.8295 74.5556 22.9663C74.7428 23.0233 74.9302 23.0844 75.1218 23.1219C75.8516 23.2645 76.4972 23.6074 77.114 23.9955C77.6171 24.312 78.1372 24.6349 78.5504 25.0533C79.1983 25.7092 79.6189 26.4912 79.7986 27.4437C79.9524 28.2585 80.0998 29.0617 80.0463 29.8844C80.0213 30.269 79.8687 30.6451 79.7774 31.0258C79.6991 31.3521 79.6814 31.7064 79.5395 32.0012C79.1433 32.8241 78.6592 33.5915 77.9025 34.1476C77.2748 34.609 76.7257 35.1766 75.9655 35.4521C75.274 35.7026 74.6129 36.0397 73.9172 36.2758C73.4931 36.4197 73.0297 36.4512 72.5822 36.5217C70.8427 36.7958 69.0903 36.6414 67.3439 36.6545C66.6932 36.6593 66.0389 36.5389 65.3909 36.4435C64.9512 36.3788 64.5114 36.2855 64.0867 36.1555C63.5945 36.0048 63.1207 35.7948 62.6355 35.6202C62.313 35.5042 61.9664 35.4415 61.6624 35.2907C61.0909 35.0071 60.475 34.8043 59.9821 34.3669C59.7892 34.1957 59.5395 34.0885 59.2697 33.9243C59.1431 33.5158 59.5264 33.2492 59.7382 32.9552C60.0288 32.5518 60.4092 32.2073 60.7796 31.8689C61.2783 31.4132 61.753 30.9493 62.4078 30.6655C63.2517 30.2997 64.1052 30.4098 64.9564 30.4171C65.4086 30.421 65.8613 30.5863 66.3103 30.6936C66.6545 30.776 67.0015 30.8593 67.3325 30.9823C67.8075 31.1588 68.323 31.1626 68.7863 31.299C69.3899 31.4766 69.9676 31.3644 70.5529 31.396C70.9287 31.4163 71.3342 31.3771 71.6857 31.2508C72.3342 31.0178 73.0423 30.8878 73.5248 30.3015C73.8219 29.9404 73.9468 29.2472 73.5323 28.8435C73.1986 28.5185 72.838 28.3069 72.4072 28.1628C71.77 27.9497 71.1177 27.8327 70.4573 27.717C69.8523 27.6109 69.2575 27.4788 68.6396 27.435C68.1121 27.3976 67.5901 27.2637 67.0693 27.1548C66.6866 27.0747 66.3062 26.9781 65.931 26.8677C65.2267 26.6605 64.5017 26.4958 63.8332 26.2035C63.3035 25.9718 62.8398 25.5842 62.3579 25.2497C62.0966 25.0683 61.825 24.883 61.6175 24.647C61.2344 24.2112 60.8547 23.7775 60.6157 23.221C60.4378 22.8065 60.3655 22.3874 60.2555 21.9632C59.9968 20.9661 60.1136 19.9623 60.167 18.9774C60.2039 18.2948 60.4629 17.6105 60.8648 16.9786C61.2307 16.4031 61.5798 15.8168 62.0837 15.3746C62.5486 14.9667 63.1181 14.6785 63.6401 14.3353C63.816 14.2197 63.9789 14.0811 64.1635 13.9828C64.3398 13.8891 64.5373 13.8356 64.7244 13.7618C65.2069 13.5715 65.6834 13.3643 66.1731 13.1952C66.422 13.1092 66.6927 13.0791 66.9563 13.0445C67.3965 12.9867 67.8494 12.9903 68.2784 12.8891C69.5164 12.5973 70.7662 12.7942 72.0086 12.7713C72.5762 12.7609 73.1472 12.9425 73.7168 13.0356C73.7636 13.0432 73.8135 13.0333 73.8597 13.0427C74.3234 13.1362 74.7856 13.2382 75.2507 13.3236C75.3902 13.3493 75.5377 13.3308 75.7091 13.3488Z" fill="#1C3C84"/>
<path d="M9.1843 40.45C8.98549 40.7292 8.80113 40.9813 8.617 41.2336C8.60998 41.2432 8.60774 41.2585 8.59884 41.2643C8.29851 41.4611 8.0144 41.6928 7.69253 41.8438C7.30958 42.0235 6.90103 42.1625 6.48967 42.2609C6.30393 42.3053 6.0828 42.2172 5.88094 42.1741C5.64466 42.1238 5.40787 42.0693 5.17832 41.995C4.43265 41.7535 3.87422 41.3446 3.49322 40.595C3.0878 39.7972 3.08722 38.9902 3.08711 38.1565C3.08626 31.964 3.08665 25.7715 3.08665 19.5789C3.08665 19.45 3.08665 19.321 3.08665 19.2C2.76895 19.164 2.47588 19.1513 2.19169 19.0943C1.59826 18.9752 1.13846 18.6642 0.836737 18.1198C0.715094 17.9003 0.520436 17.7226 0.382787 17.5104C0.281816 17.3548 0.184839 17.1812 0.147461 17.0028C0.0736068 16.6502 -0.0377518 16.2768 0.0126806 15.9336C0.0832961 15.453 0.209277 14.9448 0.455937 14.5356C0.718978 14.0993 1.11809 13.7249 1.51984 13.4005C1.76194 13.205 2.12051 13.1512 2.43011 13.0434C2.63493 12.9721 2.84571 12.9179 3.08665 12.8463C3.08665 12.7068 3.07767 12.5406 3.08821 12.3756C3.13255 11.6814 3.07988 10.9592 3.26018 10.3016C3.43442 9.66599 3.58393 9.01614 3.82639 8.38541C4.25855 7.26119 5.06532 6.49262 5.89512 5.72428C6.559 5.10957 7.34082 4.68343 8.25546 4.53635C8.44377 4.50606 8.62085 4.40331 8.80161 4.33022C8.84375 4.31317 8.87749 4.26365 8.9189 4.25824C9.3237 4.20531 9.72851 4.15009 10.1349 4.11207C10.7314 4.05627 11.3292 3.97696 11.9265 3.97657C12.5096 3.97618 13.1011 4.01701 13.6737 4.12265C14.2939 4.23709 14.911 4.40839 15.5021 4.62859C15.9453 4.79365 16.3524 5.06323 16.7606 5.31093C16.9362 5.4175 17.191 5.50497 16.9222 5.83004C16.7461 6.04307 16.7392 6.38869 16.6232 6.66071C16.3439 7.31585 16.0156 7.95187 15.5243 8.47104C15.3081 8.69962 15.0106 8.88472 14.715 8.99854C13.6292 9.41658 12.4799 9.31585 11.3482 9.39547C10.7955 9.43435 10.2892 9.75437 9.89654 10.2514C9.26665 11.0485 9.32952 11.943 9.3575 12.8975C10.0808 12.8975 10.8089 12.8616 11.5314 12.9099C12.0342 12.9435 12.5976 12.9769 13.0101 13.2206C13.4897 13.504 13.9365 13.879 14.2689 14.4087C14.6559 15.0254 14.863 15.647 14.7975 16.336C14.7429 16.9094 14.5833 17.4782 14.1823 17.9394C14.0805 18.0565 14.0424 18.2376 13.9285 18.3343C13.3566 18.8201 12.759 19.2221 11.9402 19.1742C11.1409 19.1274 10.3367 19.164 9.489 19.164C9.489 19.3012 9.489 19.4277 9.489 19.5543C9.489 26.0228 9.49374 32.4914 9.47701 38.9599C9.47603 39.3403 9.29746 39.7192 9.21155 40.1011C9.18837 40.2041 9.20204 40.3155 9.1843 40.45Z" fill="#1C3C84"/>
<path d="M55.5898 17.9395C55.2436 17.9395 54.9306 17.9578 54.6205 17.9349C54.2255 17.9058 53.8304 17.7893 53.4399 17.8078C52.8141 17.8374 52.3127 18.139 51.987 18.698C51.8407 18.9492 51.6754 19.1895 51.5337 19.4432C51.4374 19.6156 51.3454 19.7962 51.2907 19.9846C51.2199 20.2281 51.1981 20.4855 51.1371 20.7324C51.0516 21.0787 50.9445 21.4197 50.8576 21.7657C50.8349 21.8562 50.852 21.9569 50.852 22.0529C50.8519 25.8704 50.8693 29.6879 50.8363 33.5051C50.8302 34.2089 50.6737 34.8971 50.1661 35.5044C49.8916 35.8329 49.6143 36.1494 49.2709 36.3615C48.8913 36.5959 48.4366 36.7092 47.9661 36.6695C47.7757 36.6535 47.5827 36.6673 47.3909 36.6668C46.2138 36.6636 45.3739 36.1756 44.8587 35.0692C44.6081 34.5312 44.4486 34.0087 44.4488 33.4244C44.4503 29.2228 44.4367 25.0211 44.4671 20.8198C44.4706 20.3328 44.5734 19.8117 44.8477 19.3597C44.941 19.2062 44.9651 19.0111 45.0247 18.8364C45.1215 18.5525 45.2098 18.2649 45.3236 17.9879C45.4241 17.7433 45.5364 17.4995 45.676 17.2757C45.8995 16.9175 46.1318 16.5616 46.3936 16.2312C46.7092 15.833 47.0268 15.4258 47.4028 15.0888C47.9218 14.6236 48.4567 14.1721 49.1199 13.8945C49.6983 13.6524 50.239 13.3208 50.8148 13.0712C51.0721 12.9597 51.3732 12.9133 51.6564 12.905C52.4111 12.8829 53.1688 12.8646 53.9214 12.91C54.365 12.9367 54.8003 13.0919 55.241 13.181C55.5249 13.2384 55.8163 13.2629 56.0964 13.3336C56.5954 13.4594 57.0881 13.6101 57.5839 13.7485C57.9498 13.8506 58.3126 13.9697 58.6841 14.0447C59.0982 14.1283 59.3583 14.349 59.2622 14.6096C59.1818 14.8274 59.0923 15.0517 58.9581 15.2379C58.5958 15.7409 58.1924 16.2144 57.8336 16.7199C57.469 17.2336 56.932 17.5052 56.4032 17.778C56.1761 17.8951 55.8859 17.8894 55.5898 17.9395Z" fill="#1C3C84"/>
<path d="M83.4393 30.3284C83.4393 27.7264 83.4393 25.1605 83.4393 22.5494C84.3077 22.5494 85.1696 22.4957 86.0203 22.57C86.5096 22.6128 87.0341 22.7787 87.4464 23.0411C87.9409 23.3557 88.3338 23.8308 88.7685 24.2388C89.2433 24.6845 89.4437 25.2405 89.5705 25.8807C89.8411 27.2471 89.6374 28.6151 89.6892 29.9804C89.7313 31.0944 89.6768 32.2118 89.7039 33.3268C89.7286 34.3393 89.3938 35.1923 88.606 35.8089C88.1569 36.1604 87.6509 36.482 87.0223 36.4532C86.7234 36.4395 86.4231 36.4597 86.124 36.4488C85.6598 36.4318 85.2477 36.2693 84.8845 35.9772C84.7721 35.8868 84.6245 35.8332 84.53 35.7291C84.0836 35.2375 83.7192 34.7188 83.5679 34.0323C83.2984 32.8098 83.5259 31.5844 83.4393 30.3284Z" fill="#1C3C84"/>
<path d="M84.3703 18.803C84.1365 18.3591 83.9383 17.9152 83.7249 17.4787C83.4538 16.924 83.4009 16.3324 83.445 15.734C83.4906 15.1163 83.6578 14.5326 84.0805 14.0498C84.2459 13.8608 84.3723 13.6288 84.5621 13.4716C85.0553 13.0632 85.5865 12.7169 86.2719 12.7527C86.3675 12.7577 86.464 12.7591 86.5594 12.7526C87.5846 12.682 88.3988 13.0781 89.0582 13.8519C89.2924 14.1267 89.4659 14.4081 89.5631 14.7663C89.8479 15.8149 89.6458 16.8763 89.6904 17.93C89.7275 18.8037 89.698 19.6802 89.698 20.6045C89.1339 20.6045 88.5731 20.5653 88.0199 20.6135C87.1293 20.691 86.319 20.4229 85.5871 19.9985C85.1139 19.724 84.6598 19.3383 84.3703 18.803Z" fill="#1C3C84"/>
<path d="M125.81 7.2031C125.555 6.68469 125.599 6.13936 125.689 5.65649C125.874 4.67141 126.454 3.91268 127.328 3.38943C127.922 3.03399 128.571 3.09146 129.212 3.1053C130.182 3.12625 130.896 3.62141 131.445 4.38629C131.946 5.08444 132.029 5.86308 131.934 6.70114C131.817 7.7332 131.34 8.50087 130.443 9.01163C130.057 9.23187 129.645 9.37539 129.194 9.36737C128.63 9.35733 128.045 9.45959 127.525 9.15003C127.271 8.99836 127.063 8.76465 126.803 8.62633C126.233 8.32292 126.064 7.75277 125.81 7.2031Z" fill="#ED1D59"/>
</svg>
