<svg width="18" height="19" viewBox="0 0 18 19" fill="none" xmlns="http://www.w3.org/2000/svg">
<path fill-rule="evenodd" clip-rule="evenodd" d="M5 4.60126C5 3.54039 5.42143 2.52298 6.17157 1.77283C6.92172 1.02268 7.93913 0.601257 9 0.601257C10.0609 0.601257 11.0783 1.02268 11.8284 1.77283C12.5786 2.52298 13 3.54039 13 4.60126C13 5.66212 12.5786 6.67954 11.8284 7.42968C11.0783 8.17983 10.0609 8.60126 9 8.60126C7.93913 8.60126 6.92172 8.17983 6.17157 7.42968C5.42143 6.67954 5 5.66212 5 4.60126ZM5 10.6013C3.67392 10.6013 2.40215 11.128 1.46447 12.0657C0.526784 13.0034 0 14.2752 0 15.6013C0 16.3969 0.316071 17.16 0.87868 17.7226C1.44129 18.2852 2.20435 18.6013 3 18.6013H15C15.7956 18.6013 16.5587 18.2852 17.1213 17.7226C17.6839 17.16 18 16.3969 18 15.6013C18 14.2752 17.4732 13.0034 16.5355 12.0657C15.5979 11.128 14.3261 10.6013 13 10.6013H5Z" fill="#CCCCCC"/>
</svg>
