<svg width="25" height="24" viewBox="0 0 25 24" fill="none" xmlns="http://www.w3.org/2000/svg">
<path d="M23.8808 9.83742C24.0188 10.6428 24.0875 11.4589 24.0862 12.2764C24.0862 15.9272 22.8008 19.0141 20.564 21.1036H20.5669C18.6108 22.938 15.9218 24 12.7335 24C9.59869 24 6.59232 22.7358 4.37571 20.4854C2.1591 18.235 0.913818 15.1829 0.913818 12.0004C0.913818 8.81785 2.1591 5.7657 4.37571 3.51533C6.59232 1.26496 9.59869 0.000716982 12.7335 0.000716982C15.6673 -0.0324529 18.5003 1.08641 20.6408 3.12362L17.2663 6.54952C16.0462 5.36943 14.4184 4.72305 12.7335 4.74958C9.65001 4.74958 7.03048 6.86151 6.09673 9.70543C5.60251 11.1958 5.60251 12.8094 6.09673 14.2998H6.10116C7.03934 17.1392 9.65444 19.2511 12.7379 19.2511C14.3306 19.2511 15.6987 18.8372 16.7595 18.1052H16.7551C17.3712 17.691 17.8981 17.1544 18.3042 16.5276C18.7102 15.9009 18.9869 15.1971 19.1175 14.4588H12.7335V9.83892L23.8808 9.83742Z" fill="#36C5F0"/>
</svg>
