<svg width="70" height="84" viewBox="0 0 70 84" fill="none" xmlns="http://www.w3.org/2000/svg">
<g filter="url(#filter0_dd_568_152)">
<path fill-rule="evenodd" clip-rule="evenodd" d="M35 67C48.8071 67 60 55.8071 60 42C60 28.1929 48.8071 17 35 17C21.1929 17 10 28.1929 10 42C10 55.8071 21.1929 67 35 67Z" fill="#1C3C84"/>
</g>
<path d="M28.4442 34.2232C28.4439 34.8125 28.2095 35.3776 27.7926 35.7941C27.3756 36.2107 26.8103 36.4445 26.221 36.4442C25.6317 36.4439 25.0666 36.2095 24.6501 35.7926C24.2335 35.3756 23.9997 34.8103 24 34.221C24.0003 33.6317 24.2347 33.0666 24.6516 32.6501C25.0686 32.2335 25.6339 31.9997 26.2232 32C26.8125 32.0003 27.3776 32.2347 27.7941 32.6516C28.2107 33.0686 28.4445 33.6339 28.4442 34.2232ZM28.5109 38.0897H24.0667V52H28.5109V38.0897ZM35.5327 38.0897H31.1107V52H35.4883V44.7004C35.4883 40.634 40.788 40.2562 40.788 44.7004V52H45.1766V43.1894C45.1766 36.3342 37.3326 36.5897 35.4883 39.9562L35.5327 38.0897Z" fill="white"/>
<defs>
<filter id="filter0_dd_568_152" x="0" y="0" width="70" height="84" filterUnits="userSpaceOnUse" color-interpolation-filters="sRGB">
<feFlood flood-opacity="0" result="BackgroundImageFix"/>
<feColorMatrix in="SourceAlpha" type="matrix" values="0 0 0 0 0 0 0 0 0 0 0 0 0 0 0 0 0 0 127 0" result="hardAlpha"/>
<feOffset dy="7"/>
<feGaussianBlur stdDeviation="5"/>
<feColorMatrix type="matrix" values="0 0 0 0 0.294118 0 0 0 0 0.294118 0 0 0 0 0.294118 0 0 0 0.1 0"/>
<feBlend mode="normal" in2="BackgroundImageFix" result="effect1_dropShadow_568_152"/>
<feColorMatrix in="SourceAlpha" type="matrix" values="0 0 0 0 0 0 0 0 0 0 0 0 0 0 0 0 0 0 127 0" result="hardAlpha"/>
<feOffset dy="-7"/>
<feGaussianBlur stdDeviation="5"/>
<feColorMatrix type="matrix" values="0 0 0 0 0.294118 0 0 0 0 0.294118 0 0 0 0 0.294118 0 0 0 0.01 0"/>
<feBlend mode="normal" in2="effect1_dropShadow_568_152" result="effect2_dropShadow_568_152"/>
<feBlend mode="normal" in="SourceGraphic" in2="effect2_dropShadow_568_152" result="shape"/>
</filter>
</defs>
</svg>
