<svg width="22" height="16" viewBox="0 0 22 16" fill="none" xmlns="http://www.w3.org/2000/svg">
<path d="M11 4.60126C10.2044 4.60126 9.44129 4.91733 8.87868 5.47994C8.31607 6.04255 8 6.80561 8 7.60126C8 8.39691 8.31607 9.15997 8.87868 9.72258C9.44129 10.2852 10.2044 10.6013 11 10.6013C11.7956 10.6013 12.5587 10.2852 13.1213 9.72258C13.6839 9.15997 14 8.39691 14 7.60126C14 6.80561 13.6839 6.04255 13.1213 5.47994C12.5587 4.91733 11.7956 4.60126 11 4.60126ZM11 12.6013C9.67392 12.6013 8.40215 12.0745 7.46447 11.1368C6.52678 10.1991 6 8.92734 6 7.60126C6 6.27518 6.52678 5.00341 7.46447 4.06572C8.40215 3.12804 9.67392 2.60126 11 2.60126C12.3261 2.60126 13.5979 3.12804 14.5355 4.06572C15.4732 5.00341 16 6.27518 16 7.60126C16 8.92734 15.4732 10.1991 14.5355 11.1368C13.5979 12.0745 12.3261 12.6013 11 12.6013ZM11 0.101257C6 0.101257 1.73 3.21126 0 7.60126C1.73 11.9913 6 15.1013 11 15.1013C16 15.1013 20.27 11.9913 22 7.60126C20.27 3.21126 16 0.101257 11 0.101257Z" fill="#CCCCCC"/>
</svg>
