<svg width="18" height="25" viewBox="0 0 18 25" fill="none" xmlns="http://www.w3.org/2000/svg">
<path d="M9 18.7888C9.59674 18.7888 10.169 18.5517 10.591 18.1297C11.0129 17.7078 11.25 17.1355 11.25 16.5388C11.25 15.942 11.0129 15.3697 10.591 14.9478C10.169 14.5258 9.59674 14.2888 9 14.2888C8.40326 14.2888 7.83097 14.5258 7.40901 14.9478C6.98705 15.3697 6.75 15.942 6.75 16.5388C6.75 17.1355 6.98705 17.7078 7.40901 18.1297C7.83097 18.5517 8.40326 18.7888 9 18.7888ZM15.75 8.66376C16.3467 8.66376 16.919 8.90081 17.341 9.32277C17.7629 9.74472 18 10.317 18 10.9138V22.1638C18 22.7605 17.7629 23.3328 17.341 23.7547C16.919 24.1767 16.3467 24.4138 15.75 24.4138H2.25C1.65326 24.4138 1.08097 24.1767 0.65901 23.7547C0.237053 23.3328 0 22.7605 0 22.1638V10.9138C0 10.317 0.237053 9.74472 0.65901 9.32277C1.08097 8.90081 1.65326 8.66376 2.25 8.66376H3.375V6.41376C3.375 4.92191 3.96763 3.49117 5.02252 2.43628C6.07742 1.38139 7.50816 0.788757 9 0.788757C9.73869 0.788757 10.4701 0.934252 11.1526 1.21693C11.8351 1.49962 12.4551 1.91395 12.9775 2.43628C13.4998 2.95861 13.9141 3.57871 14.1968 4.26116C14.4795 4.94362 14.625 5.67507 14.625 6.41376V8.66376H15.75ZM9 3.03876C8.10489 3.03876 7.24645 3.39434 6.61351 4.02727C5.98058 4.66021 5.625 5.51865 5.625 6.41376V8.66376H12.375V6.41376C12.375 5.51865 12.0194 4.66021 11.3865 4.02727C10.7536 3.39434 9.89511 3.03876 9 3.03876Z" fill="#CCCCCC"/>
</svg>
