<svg width="22" height="18" viewBox="0 0 22 18" fill="none" xmlns="http://www.w3.org/2000/svg">
<path d="M21.7708 9.1613L13.9462 16.9859C13.8368 17.0955 13.6973 17.1701 13.5454 17.2003C13.3936 17.2306 13.2362 17.2151 13.0931 17.1558C12.9501 17.0965 12.8278 16.9962 12.7418 16.8674C12.6559 16.7386 12.61 16.5872 12.6102 16.4323V12.5425C7.02534 12.8594 3.19616 16.4812 2.12125 17.6285C1.95247 17.8088 1.73113 17.9312 1.48873 17.9784C1.24634 18.0256 0.995236 17.9951 0.771168 17.8913C0.5471 17.7875 0.36148 17.6156 0.240724 17.4002C0.119968 17.1848 0.0702288 16.9368 0.0985855 16.6915C0.461453 13.5362 2.18972 10.5013 4.9655 8.14606C7.27084 6.1899 10.073 4.94872 12.6102 4.73158V0.783079C12.61 0.628233 12.6559 0.476832 12.7418 0.348044C12.8278 0.219255 12.9501 0.11887 13.0931 0.0595963C13.2362 0.000322761 13.3936 -0.0151736 13.5454 0.0150689C13.6973 0.0453114 13.8368 0.119933 13.9462 0.229487L21.7708 8.05412C21.8436 8.12679 21.9013 8.21308 21.9407 8.30807C21.9801 8.40306 22.0003 8.50488 22.0003 8.60771C22.0003 8.71054 21.9801 8.81236 21.9407 8.90734C21.9013 9.00233 21.8436 9.08863 21.7708 9.1613Z" fill="#E2E8F0"/>
</svg>
