<svg width="19" height="20" viewBox="0 0 19 20" fill="none" xmlns="http://www.w3.org/2000/svg">
<mask id="path-1-inside-1_984_2553" fill="white">
<path fill-rule="evenodd" clip-rule="evenodd" d="M9.72089 1.47349C9.31438 1.40093 8.75941 1.39535 7.75904 1.39535C6.06495 1.39535 4.86045 1.39721 3.94845 1.52558C3.05413 1.65116 2.54069 1.88837 2.16688 2.28093C1.79306 2.67349 1.5686 3.21395 1.4493 4.14977C1.32734 5.10605 1.32558 6.36558 1.32558 8.14047V11.8614C1.32558 13.6344 1.32734 14.894 1.4493 15.8502C1.5686 16.786 1.79306 17.3256 2.16688 17.72C2.54069 18.1126 3.05324 18.3488 3.94226 18.4744C4.85072 18.6037 6.04728 18.6047 7.73253 18.6047H11.2674C12.9526 18.6047 14.1501 18.6028 15.0585 18.4744C15.9467 18.3488 16.4592 18.1126 16.833 17.7191C17.2069 17.3256 17.4313 16.786 17.5506 15.8502C17.6726 14.8949 17.6743 13.6344 17.6743 11.8605V11.454C17.6743 10.0251 17.6655 9.34791 17.5206 8.83721H14.7545C13.7533 8.83721 12.9359 8.83721 12.289 8.74605C11.6147 8.65023 11.0297 8.44372 10.5622 7.95163C10.0947 7.45954 9.89852 6.84465 9.8075 6.13302C9.72089 5.45395 9.72089 4.59256 9.72089 3.53767V1.47349ZM11.0465 2.19535V3.48837C11.0465 4.60465 11.0482 5.37116 11.1216 5.94698C11.1923 6.50326 11.3195 6.77581 11.4998 6.96465C11.6801 7.15349 11.9381 7.28837 12.4666 7.36279C13.0136 7.44 13.7418 7.44186 14.8023 7.44186H16.5874C16.2482 7.10197 15.9035 6.76828 15.5534 6.44093L12.0548 3.12651C11.7248 2.8089 11.3886 2.49845 11.0465 2.19535ZM7.88718 0C9.11113 0 9.90205 5.54462e-08 10.6294 0.293023C11.3567 0.586977 11.9417 1.1414 12.8475 2L12.942 2.0893L16.4398 5.40372L16.5503 5.50791C17.5966 6.4986 18.2735 7.13953 18.6367 7.99907C18.9999 8.8586 19.0008 9.81674 18.9999 11.2977V11.9126C18.9999 13.6223 18.9999 14.9767 18.8647 16.0363C18.7251 17.1265 18.4317 18.0093 17.7707 18.706C17.1088 19.4019 16.2701 19.7107 15.2344 19.8577C14.227 20 12.9412 20 11.3169 20H7.68304C6.05877 20 4.77207 20 3.76552 19.8577C2.7298 19.7107 1.89116 19.4019 1.22925 18.706C0.56823 18.0093 0.274836 17.1265 0.135209 16.0363C0 14.9758 0 13.6223 0 11.9126V8.08837C0 6.3786 0 5.02419 0.135209 3.96465C0.274836 2.87442 0.56823 1.99163 1.22925 1.29488C1.89204 0.59814 2.73245 0.290233 3.77259 0.143256C4.78356 0.000930276 6.07644 0.000930276 7.70955 0.000930276H7.88806"/>
</mask>
<path d="M9.72089 1.47349H11.2209V0.217517L9.98446 -0.00317354L9.72089 1.47349ZM3.94845 1.52558L4.15703 3.01101L4.15753 3.01094L3.94845 1.52558ZM1.4493 4.14977L2.93725 4.33952L2.93725 4.33946L1.4493 4.14977ZM1.4493 15.8502L2.93725 15.6605L2.93725 15.6605L1.4493 15.8502ZM2.16688 17.72L1.07815 18.7518L1.0806 18.7544L2.16688 17.72ZM3.94226 18.4744L4.15363 16.9894L4.15207 16.9892L3.94226 18.4744ZM15.0585 18.4744L15.2684 19.9597L15.2686 19.9596L15.0585 18.4744ZM17.5506 15.8502L16.0627 15.6603L16.0627 15.6605L17.5506 15.8502ZM17.5206 8.83721L18.9636 8.4277L18.6541 7.33721H17.5206V8.83721ZM12.289 8.74605L12.0779 10.2311L12.0797 10.2314L12.289 8.74605ZM9.8075 6.13302L8.31955 6.32279L8.31962 6.32333L9.8075 6.13302ZM11.0465 2.19535L12.0412 1.07259L9.54647 -1.13755V2.19535H11.0465ZM11.1216 5.94698L12.6096 5.75786L12.6096 5.75744L11.1216 5.94698ZM12.4666 7.36279L12.6762 5.87751L12.6758 5.87745L12.4666 7.36279ZM16.5874 7.44186V8.94186H20.2031L17.6492 6.38236L16.5874 7.44186ZM15.5534 6.44093L14.5218 7.52989L14.529 7.53659L15.5534 6.44093ZM12.0548 3.12651L11.0146 4.20733L11.0232 4.21545L12.0548 3.12651ZM10.6294 0.293023L11.1914 -1.09768L11.1899 -1.0983L10.6294 0.293023ZM12.8475 2L11.8156 3.08865L11.8176 3.09053L12.8475 2ZM12.942 2.0893L13.9738 1.00049L13.972 0.998768L12.942 2.0893ZM16.4398 5.40372L15.4081 6.49254L15.4106 6.49494L16.4398 5.40372ZM16.5503 5.50791L17.5816 4.41869L17.5795 4.41669L16.5503 5.50791ZM18.9999 11.2977L17.4999 11.2968V11.2977H18.9999ZM18.8647 16.0363L20.3526 16.2268L20.3526 16.2262L18.8647 16.0363ZM17.7707 18.706L18.8575 19.7399L18.8589 19.7384L17.7707 18.706ZM15.2344 19.8577L15.4442 21.3429L15.4452 21.3428L15.2344 19.8577ZM3.76552 19.8577L3.55477 21.3428L3.55551 21.3429L3.76552 19.8577ZM1.22925 18.706L0.14106 19.7384L0.142439 19.7399L1.22925 18.706ZM0.135209 16.0363L-1.35275 16.226L-1.35264 16.2268L0.135209 16.0363ZM0.135209 3.96465L-1.35264 3.7741L-1.35272 3.77477L0.135209 3.96465ZM1.22925 1.29488L0.142437 0.261036L0.141061 0.262487L1.22925 1.29488ZM3.77259 0.143256L3.56348 -1.3421L3.56272 -1.34199L3.77259 0.143256ZM9.98446 -0.00317354C9.416 -0.104638 8.70291 -0.104651 7.75904 -0.104651V2.89535C8.8159 2.89535 9.21276 2.9065 9.45732 2.95015L9.98446 -0.00317354ZM7.75904 -0.104651C6.10955 -0.104651 4.78022 -0.106285 3.73937 0.0402242L4.15753 3.01094C4.94067 2.9007 6.02035 2.89535 7.75904 2.89535V-0.104651ZM3.73986 0.0401549C2.66313 0.191351 1.7755 0.51677 1.0806 1.24652L3.25315 3.31534C3.30587 3.25997 3.44513 3.11098 4.15703 3.01101L3.73986 0.0401549ZM1.0806 1.24652C0.394284 1.96725 0.100103 2.8716 -0.0386607 3.96008L2.93725 4.33946C3.03709 3.55631 3.19184 3.37972 3.25315 3.31534L1.0806 1.24652ZM-0.0386525 3.96001C-0.175531 5.03333 -0.174424 6.40597 -0.174424 8.14047H2.82558C2.82558 6.32519 2.83022 5.17876 2.93725 4.33952L-0.0386525 3.96001ZM-0.174424 8.14047V11.8614H2.82558V8.14047H-0.174424ZM-0.174424 11.8614C-0.174424 13.5941 -0.17553 14.9667 -0.0386525 16.04L2.93725 15.6605C2.83022 14.8212 2.82558 13.6748 2.82558 11.8614H-0.174424ZM-0.0386607 16.0399C0.100331 17.1302 0.394869 18.0309 1.07816 18.7518L3.25559 16.6882C3.19126 16.6203 3.03687 16.4419 2.93725 15.6605L-0.0386607 16.0399ZM1.0806 18.7544C1.77515 19.4838 2.66138 19.8084 3.73246 19.9597L4.15207 16.9892C3.4451 16.8893 3.30623 16.7413 3.25315 16.6856L1.0806 18.7544ZM3.7309 19.9595C4.76985 20.1073 6.09344 20.1047 7.73253 20.1047V17.1047C6.00112 17.1047 4.9316 17.1001 4.15363 16.9894L3.7309 19.9595ZM7.73253 20.1047H11.2674V17.1047H7.73253V20.1047ZM11.2674 20.1047C12.908 20.1047 14.2307 20.1063 15.2684 19.9597L14.8487 16.9892C14.0695 17.0993 12.9973 17.1047 11.2674 17.1047V20.1047ZM15.2686 19.9596C16.3388 19.8083 17.2258 19.4835 17.9206 18.7522L15.7455 16.6859C15.6927 16.7416 15.5545 16.8894 14.8485 16.9892L15.2686 19.9596ZM17.9206 18.7522C18.6052 18.0315 18.8997 17.1296 19.0386 16.0399L16.0627 15.6605C15.963 16.4425 15.8085 16.6197 15.7455 16.6859L17.9206 18.7522ZM19.0386 16.0402C19.1755 14.9677 19.1743 13.5939 19.1743 11.8605H16.1743C16.1743 13.6749 16.1697 14.8221 16.0627 15.6603L19.0386 16.0402ZM19.1743 11.8605V11.454H16.1743V11.8605H19.1743ZM19.1743 11.454C19.1743 10.1233 19.1796 9.18898 18.9636 8.4277L16.0776 9.24672C16.1514 9.50684 16.1743 9.9269 16.1743 11.454H19.1743ZM17.5206 7.33721H14.7545V10.3372H17.5206V7.33721ZM14.7545 7.33721C13.7132 7.33721 13.0173 7.33386 12.4983 7.26072L12.0797 10.2314C12.8545 10.3406 13.7934 10.3372 14.7545 10.3372V7.33721ZM12.5 7.26097C12.0053 7.19068 11.7955 7.07196 11.6497 6.91851L9.47469 8.98475C10.2639 9.81548 11.224 10.1098 12.0779 10.2311L12.5 7.26097ZM11.6497 6.91851C11.4935 6.75411 11.3669 6.50209 11.2954 5.94271L8.31962 6.32333C8.43011 7.18721 8.69589 8.16496 9.47469 8.98475L11.6497 6.91851ZM11.2954 5.94326C11.2237 5.38035 11.2209 4.62923 11.2209 3.53767H8.22089C8.22089 4.55588 8.21813 5.52756 8.31955 6.32279L11.2954 5.94326ZM11.2209 3.53767V1.47349H8.22089V3.53767H11.2209ZM9.54647 2.19535V3.48837H12.5465V2.19535H9.54647ZM9.54647 3.48837C9.54647 4.56419 9.54536 5.44377 9.63361 6.13652L12.6096 5.75744C12.5511 5.29855 12.5465 4.64511 12.5465 3.48837H9.54647ZM9.63355 6.13609C9.72383 6.84647 9.92128 7.48343 10.4149 8.00044L12.5848 5.92886C12.6051 5.95018 12.6256 5.97596 12.643 6.00341C12.6597 6.02994 12.6664 6.04677 12.6662 6.04643C12.6656 6.04475 12.6577 6.02402 12.6466 5.97606C12.6354 5.9278 12.6223 5.85733 12.6096 5.75786L9.63355 6.13609ZM10.4149 8.00044C10.9128 8.52203 11.5407 8.7472 12.2574 8.84814L12.6758 5.87745C12.5879 5.86507 12.5288 5.8526 12.4916 5.84302C12.4548 5.83357 12.4441 5.82815 12.4512 5.83122C12.4597 5.83493 12.4821 5.84574 12.5114 5.86624C12.5413 5.8871 12.5664 5.90957 12.5848 5.92886L10.4149 8.00044ZM12.257 8.84807C12.9332 8.94351 13.7865 8.94186 14.8023 8.94186V5.94186C13.6971 5.94186 13.0941 5.93649 12.6762 5.87751L12.257 8.84807ZM14.8023 8.94186H16.5874V5.94186H14.8023V8.94186ZM17.6492 6.38236C17.2978 6.03022 16.9407 5.68447 16.5779 5.34527L14.529 7.53659C14.8664 7.85209 15.1986 8.17372 15.5256 8.50136L17.6492 6.38236ZM16.585 5.35199L13.0864 2.03757L11.0232 4.21545L14.5218 7.52987L16.585 5.35199ZM13.0949 2.04573C12.7501 1.71384 12.3988 1.38939 12.0412 1.07259L10.0518 3.31811C10.3784 3.6075 10.6995 3.90396 11.0146 4.2073L13.0949 2.04573ZM7.88718 1.5C9.20223 1.5 9.66719 1.52254 10.0688 1.68435L11.1899 -1.0983C10.1369 -1.52254 9.02002 -1.5 7.88718 -1.5V1.5ZM10.0673 1.68373C10.4755 1.84871 10.8427 2.16644 11.8156 3.08865L13.8794 0.911352C13.0407 0.116354 12.2378 -0.674755 11.1914 -1.09768L10.0673 1.68373ZM11.8176 3.09053L11.9121 3.17984L13.972 0.998768L13.8774 0.909466L11.8176 3.09053ZM11.9103 3.17811L15.4081 6.49253L17.4715 4.31491L13.9738 1.00049L11.9103 3.17811ZM15.4106 6.49494L15.5211 6.59913L17.5795 4.41669L17.469 4.3125L15.4106 6.49494ZM15.5189 6.59712C16.6358 7.65456 17.0392 8.07226 17.255 8.58293L20.0184 7.41521C19.5078 6.20681 18.5574 5.34265 17.5816 4.41869L15.5189 6.59712ZM17.255 8.58293C17.475 9.1035 17.5009 9.71841 17.4999 11.2968L20.4999 11.2986C20.5007 9.91508 20.5249 8.61371 20.0184 7.41521L17.255 8.58293ZM17.4999 11.2977V11.9126H20.4999V11.2977H17.4999ZM17.4999 11.9126C17.4999 13.6603 17.4971 14.9034 17.3768 15.8464L20.3526 16.2262C20.5027 15.0501 20.4999 13.5844 20.4999 11.9126H17.4999ZM17.3769 15.8457C17.2567 16.7839 17.0328 17.3044 16.6825 17.6737L18.8589 19.7384C19.8306 18.7142 20.1935 17.4691 20.3526 16.2268L17.3769 15.8457ZM16.6839 17.6722C16.3434 18.0301 15.8794 18.2511 15.0237 18.3726L15.4452 21.3428C16.6609 21.1703 17.8741 20.7736 18.8575 19.7399L16.6839 17.6722ZM15.0246 18.3724C14.1457 18.4966 12.983 18.5 11.3169 18.5V21.5C12.8994 21.5 14.3082 21.5034 15.4442 21.3429L15.0246 18.3724ZM11.3169 18.5H7.68304V21.5H11.3169V18.5ZM7.68304 18.5C6.01685 18.5 4.85334 18.4966 3.97553 18.3724L3.55551 21.3429C4.69081 21.5034 6.10069 21.5 7.68304 21.5V18.5ZM3.97627 18.3726C3.12053 18.2511 2.6565 18.0301 2.31606 17.6722L0.142439 19.7399C1.12581 20.7736 2.33907 21.1703 3.55477 21.3428L3.97627 18.3726ZM2.31744 17.6737C1.9671 17.3044 1.74321 16.7839 1.62306 15.8457L-1.35264 16.2268C-1.19354 17.4691 -0.830642 18.7142 0.141061 19.7384L2.31744 17.6737ZM1.62316 15.8466C1.5028 14.9025 1.5 13.6602 1.5 11.9126H-1.5C-1.5 13.5845 -1.5028 15.0491 -1.35275 16.226L1.62316 15.8466ZM1.5 11.9126V8.08837H-1.5V11.9126H1.5ZM1.5 8.08837C1.5 6.34066 1.5028 5.09753 1.62314 4.15453L-1.35272 3.77477C-1.5028 4.95084 -1.5 6.41655 -1.5 8.08837H1.5ZM1.62306 4.1552C1.74321 3.21699 1.9671 2.69655 2.31744 2.32728L0.141061 0.262487C-0.830642 1.2867 -1.19354 2.53185 -1.35264 3.7741L1.62306 4.1552ZM2.31606 2.32873C2.65612 1.97125 3.1204 1.75032 3.98246 1.6285L3.56272 -1.34199C2.34451 -1.16985 1.12796 -0.774974 0.142438 0.261037L2.31606 2.32873ZM3.9817 1.62861C4.86447 1.50433 6.03465 1.50093 7.70955 1.50093V-1.49907C6.11823 -1.49907 4.70266 -1.50247 3.56348 -1.3421L3.9817 1.62861ZM7.70955 1.50093H7.88806V-1.49907H7.70955V1.50093Z" fill="#1C3C84" mask="url(#path-1-inside-1_984_2553)"/>
</svg>
