<svg width="16" height="13" viewBox="0 0 16 13" fill="none" xmlns="http://www.w3.org/2000/svg">
<path d="M13.917 6.5C13.917 6.70687 13.8348 6.90526 13.6885 7.05154C13.5423 7.19782 13.3439 7.28 13.137 7.28H8.19699V12.22C8.19699 12.4269 8.11481 12.6253 7.96854 12.7715C7.82226 12.9178 7.62386 13 7.41699 13C7.21012 13 7.01173 12.9178 6.86545 12.7715C6.71917 12.6253 6.63699 12.4269 6.63699 12.22V7.28H1.69699C1.49012 7.28 1.29173 7.19782 1.14545 7.05154C0.999171 6.90526 0.916992 6.70687 0.916992 6.5C0.916992 6.29313 0.999171 6.09473 1.14545 5.94846C1.29173 5.80218 1.49012 5.72 1.69699 5.72H6.63699V0.78C6.63699 0.573131 6.71917 0.374735 6.86545 0.228457C7.01173 0.0821784 7.21012 0 7.41699 0C7.62386 0 7.82226 0.0821784 7.96854 0.228457C8.11481 0.374735 8.19699 0.573131 8.19699 0.78V5.72H13.137C13.3439 5.72 13.5423 5.80218 13.6885 5.94846C13.8348 6.09473 13.917 6.29313 13.917 6.5Z" fill="#ACACAC"/>
</svg>
