<svg width="19" height="20" viewBox="0 0 19 20" fill="none" xmlns="http://www.w3.org/2000/svg">
<path d="M1.32731 7.12619L1.327 7.12645C1.14611 7.27848 1.00085 7.46795 0.901245 7.68152C0.801662 7.89503 0.750071 8.12756 0.75 8.36287C0.75 8.36293 0.75 8.36298 0.75 8.36303V18.1579C0.75 18.7586 1.23982 19.25 1.84722 19.25H5.01389C5.30555 19.25 5.58486 19.1344 5.79047 18.9294C5.99601 18.7244 6.11111 18.4468 6.11111 18.1579V13.9441C6.11111 12.8182 7.0106 11.9082 8.12578 11.8785L8.13575 11.8782H8.14572H10.8543H10.8642L10.874 11.8785C11.4127 11.8927 11.925 12.1161 12.3015 12.5018C12.678 12.8875 12.889 13.4049 12.8889 13.9441C12.8889 13.9442 12.8889 13.9442 12.8889 13.9443V18.1579C12.8889 18.7586 13.3787 19.25 13.9861 19.25H17.1528C17.4444 19.25 17.7237 19.1344 17.9294 18.9294C18.1349 18.7244 18.25 18.4468 18.25 18.1579V8.36197C18.25 8.36192 18.25 8.36187 18.25 8.36182C18.2499 8.12651 18.1983 7.89398 18.0988 7.68046C17.9991 7.46689 17.8539 7.27743 17.673 7.12539L17.6727 7.12518L10.548 1.13156C10.255 0.885303 9.88382 0.75 9.5 0.75C9.11631 0.75 8.74526 0.885209 8.45231 1.13131L1.32731 7.12619ZM1.32731 7.12619L8.452 1.13156L1.32731 7.12619Z" stroke="#1C3C84" stroke-width="1.5"/>
</svg>
