<svg width="16" height="17" viewBox="0 0 16 17" fill="none" xmlns="http://www.w3.org/2000/svg">
<path fill-rule="evenodd" clip-rule="evenodd" d="M4.44444 4.21571C4.44444 3.27272 4.81905 2.36835 5.48584 1.70155C6.15264 1.03476 7.05701 0.660156 8 0.660156C8.94299 0.660156 9.84736 1.03476 10.5142 1.70155C11.181 2.36835 11.5556 3.27272 11.5556 4.21571C11.5556 5.1587 11.181 6.06307 10.5142 6.72987C9.84736 7.39667 8.94299 7.77127 8 7.77127C7.05701 7.77127 6.15264 7.39667 5.48584 6.72987C4.81905 6.06307 4.44444 5.1587 4.44444 4.21571ZM4.44444 9.54905C3.2657 9.54905 2.13524 10.0173 1.30175 10.8508C0.468253 11.6843 0 12.8147 0 13.9935C0 14.7007 0.280952 15.379 0.781049 15.8791C1.28115 16.3792 1.95942 16.6602 2.66667 16.6602H13.3333C14.0406 16.6602 14.7189 16.3792 15.219 15.8791C15.719 15.379 16 14.7007 16 13.9935C16 12.8147 15.5317 11.6843 14.6983 10.8508C13.8648 10.0173 12.7343 9.54905 11.5556 9.54905H4.44444Z" fill="#94A3B8"/>
</svg>
