<svg width="16" height="17" viewBox="0 0 16 17" fill="none" xmlns="http://www.w3.org/2000/svg">
<path d="M16 8.66016V14.8824C16 15.3539 15.8127 15.8061 15.4793 16.1395C15.1459 16.4729 14.6937 16.6602 14.2222 16.6602H1.77778C1.30628 16.6602 0.854097 16.4729 0.520699 16.1395C0.187301 15.8061 0 15.3539 0 14.8824V8.66016H16ZM11.5556 0.660156C11.7913 0.660156 12.0174 0.753807 12.1841 0.920506C12.3508 1.0872 12.4444 1.3133 12.4444 1.54905V2.43793H14.2222C14.6937 2.43793 15.1459 2.62523 15.4793 2.95863C15.8127 3.29203 16 3.74422 16 4.21571V6.88238H0V4.21571C0 3.74422 0.187301 3.29203 0.520699 2.95863C0.854097 2.62523 1.30628 2.43793 1.77778 2.43793H3.55556V1.54905C3.55556 1.3133 3.64921 1.0872 3.81591 0.920506C3.9826 0.753807 4.2087 0.660156 4.44444 0.660156C4.68019 0.660156 4.90628 0.753807 5.07298 0.920506C5.23968 1.0872 5.33333 1.3133 5.33333 1.54905V2.43793H10.6667V1.54905C10.6667 1.3133 10.7603 1.0872 10.927 0.920506C11.0937 0.753807 11.3198 0.660156 11.5556 0.660156Z" fill="#94A3B8"/>
</svg>
