<svg width="16" height="17" viewBox="0 0 16 17" fill="none" xmlns="http://www.w3.org/2000/svg">
<path d="M15.1579 2.57797V12.1795C15.1574 12.2706 15.1377 12.3606 15.1001 12.4434C15.0625 12.5261 15.0079 12.5998 14.94 12.6595C13.7337 13.7181 12.5803 14.0998 11.4805 14.0998C9.98763 14.0998 8.59342 13.4004 7.29632 12.7515C5.20026 11.6994 3.37816 10.788 1.26316 12.4811V16.0201C1.26316 16.1898 1.19662 16.3526 1.07817 16.4727C0.959729 16.5927 0.799084 16.6602 0.631579 16.6602C0.464074 16.6602 0.303429 16.5927 0.184985 16.4727C0.0665413 16.3526 0 16.1898 0 16.0201V2.57797C0.000605572 2.48678 0.0204298 2.39677 0.0581447 2.31398C0.0958597 2.23118 0.150595 2.15751 0.218684 2.0979C3.06079 -0.396891 5.61158 0.880908 7.86 2.00828C10.0263 3.09485 11.9045 4.0342 14.1126 2.0979C14.2039 2.01771 14.3159 1.96573 14.4355 1.94812C14.555 1.93051 14.677 1.94801 14.787 1.99854C14.897 2.04907 14.9904 2.13051 15.0562 2.23321C15.1219 2.33591 15.1572 2.45556 15.1579 2.57797Z" fill="#94A3B8"/>
</svg>
