<svg width="15" height="16" viewBox="0 0 15 16" fill="none" xmlns="http://www.w3.org/2000/svg">
<path d="M12.7954 2.78418C12.8638 2.82324 12.9199 2.87939 12.9639 2.95264C13.0078 3.02588 13.0298 3.104 13.0298 3.18701C13.0298 3.22607 13.0249 3.2627 13.0151 3.29688C13.0054 3.33105 12.9932 3.36523 12.9785 3.39941L7.80029 13.7632C7.75635 13.856 7.68799 13.9243 7.59521 13.9683L6.32812 14.6055C6.17188 14.6836 6.00342 14.7227 5.82275 14.7227H5.75684C5.7373 14.7227 5.71289 14.7202 5.68359 14.7153L5.33936 15.4038C5.30029 15.4819 5.24414 15.543 5.1709 15.5869C5.09766 15.6309 5.01465 15.6553 4.92188 15.6602C4.79492 15.6602 4.68506 15.6138 4.59229 15.521C4.49951 15.4282 4.45312 15.3184 4.45312 15.1914C4.45312 15.1328 4.47021 15.0596 4.50439 14.9717C4.53857 14.8838 4.57764 14.7935 4.62158 14.7007C4.66553 14.6079 4.71436 14.5176 4.76807 14.4297C4.82178 14.3418 4.8584 14.2734 4.87793 14.2246C4.75098 14.0293 4.6875 13.8169 4.6875 13.5874V12.3789C4.6875 12.3008 4.70459 12.23 4.73877 12.1665L8.95752 3.729L8.48145 3.49463L6.74561 6.96631C6.70654 7.04443 6.65039 7.10547 6.57715 7.14941C6.50391 7.19336 6.4209 7.21777 6.32812 7.22266C6.20117 7.22266 6.09131 7.17627 5.99854 7.0835C5.90576 6.99072 5.85938 6.88086 5.85938 6.75391C5.85938 6.69043 5.87646 6.61963 5.91064 6.5415L7.66113 3.04053C7.73926 2.88428 7.84424 2.76221 7.97607 2.67432C8.10791 2.58643 8.26172 2.54004 8.4375 2.53516C8.6084 2.53516 8.76953 2.57666 8.9209 2.65967C9.07227 2.74268 9.22363 2.8208 9.375 2.89404L9.89502 1.854C9.93408 1.771 9.99023 1.70752 10.0635 1.66357C10.1367 1.61963 10.2197 1.59766 10.3125 1.59766C10.376 1.59766 10.4297 1.60742 10.4736 1.62695C10.5322 1.50977 10.5884 1.39502 10.6421 1.28271C10.6958 1.17041 10.7593 1.06543 10.8325 0.967773C10.9058 0.870117 10.9937 0.796875 11.0962 0.748047C11.1987 0.699219 11.3281 0.669922 11.4844 0.660156C11.6406 0.660156 11.7896 0.696777 11.9312 0.77002L12.6196 1.11426C12.7759 1.19238 12.8979 1.29492 12.9858 1.42188C13.0737 1.54883 13.1201 1.70508 13.125 1.89062C13.125 2.05664 13.0884 2.21045 13.0151 2.35205C12.9419 2.49365 12.8687 2.6377 12.7954 2.78418ZM11.3159 2.04443L11.9531 2.35938L12.1655 1.93457L11.5283 1.61963L11.3159 2.04443ZM11.9312 3.39941L10.5249 2.69629L5.625 12.4888V13.5874C5.625 13.6411 5.64453 13.6875 5.68359 13.7266C5.72266 13.7656 5.76904 13.7852 5.82275 13.7852C5.84229 13.7852 5.88135 13.7729 5.93994 13.7485C5.99854 13.7241 6.06934 13.6924 6.15234 13.6533C6.23535 13.6143 6.3208 13.5728 6.40869 13.5288C6.49658 13.4849 6.58447 13.4385 6.67236 13.3896C6.76025 13.3408 6.8335 13.3018 6.89209 13.2725C6.95068 13.2432 6.99707 13.2188 7.03125 13.1992L11.9312 3.39941ZM13.125 6.28516C13.3838 6.28516 13.6255 6.33398 13.8501 6.43164C14.0747 6.5293 14.2749 6.66357 14.4507 6.83447C14.6265 7.00537 14.7607 7.20312 14.8535 7.42773C14.9463 7.65234 14.9951 7.89648 15 8.16016C15 8.41895 14.9512 8.66064 14.8535 8.88525C14.7559 9.10986 14.6216 9.31006 14.4507 9.48584C14.2798 9.66162 14.082 9.7959 13.8574 9.88867C13.6328 9.98145 13.3887 10.0303 13.125 10.0352H11.0156L11.4844 9.09766H13.125C13.2568 9.09766 13.3789 9.07324 13.4912 9.02441C13.6035 8.97559 13.7012 8.90967 13.7842 8.82666C13.8672 8.74365 13.9355 8.64355 13.9893 8.52637C14.043 8.40918 14.0674 8.28711 14.0625 8.16016C14.0625 8.02832 14.0381 7.90625 13.9893 7.79395C13.9404 7.68164 13.8745 7.58398 13.7915 7.50098C13.7085 7.41797 13.6084 7.34961 13.4912 7.2959C13.374 7.24219 13.252 7.21777 13.125 7.22266C12.998 7.22266 12.8882 7.17627 12.7954 7.0835C12.7026 6.99072 12.6562 6.88086 12.6562 6.75391C12.6562 6.62695 12.7026 6.51709 12.7954 6.42432C12.8882 6.33154 12.998 6.28516 13.125 6.28516ZM0.9375 12.3789C0.9375 12.7012 0.998535 13.0039 1.12061 13.2871C1.24268 13.5703 1.40869 13.8193 1.61865 14.0342C1.82861 14.249 2.07764 14.4175 2.36572 14.5396C2.65381 14.6616 2.95898 14.7227 3.28125 14.7227H3.60352C3.5791 14.7959 3.55957 14.8716 3.54492 14.9497C3.53027 15.0278 3.52051 15.1084 3.51562 15.1914C3.51562 15.2744 3.52295 15.355 3.5376 15.4331C3.55225 15.5112 3.57422 15.5869 3.60352 15.6602H3.28125C2.82715 15.6602 2.40234 15.5747 2.00684 15.4038C1.61133 15.2329 1.26465 14.9985 0.966797 14.7007C0.668945 14.4028 0.43457 14.0562 0.263672 13.6606C0.0927734 13.2651 0.00488281 12.8379 0 12.3789C0 11.9248 0.0854492 11.5 0.256348 11.1045C0.427246 10.709 0.661621 10.3623 0.959473 10.0645C1.25732 9.7666 1.604 9.53223 1.99951 9.36133C2.39502 9.19043 2.82227 9.10254 3.28125 9.09766H4.92188L4.45312 10.0352H3.28125C2.95898 10.0352 2.65625 10.0962 2.37305 10.2183C2.08984 10.3403 1.84082 10.5088 1.62598 10.7236C1.41113 10.9385 1.24268 11.1875 1.12061 11.4707C0.998535 11.7539 0.9375 12.0566 0.9375 12.3789Z" fill="#ACACAC"/>
</svg>
