<svg width="16" height="17" viewBox="0 0 16 17" fill="none" xmlns="http://www.w3.org/2000/svg">
<path d="M8 0.660156C8.4448 0.660156 8.88 0.695356 9.3056 0.765756L7.808 2.26336C6.55951 2.30082 5.34926 2.7028 4.32645 3.41974C3.30365 4.13668 2.51298 5.13725 2.05193 6.2981C1.59088 7.45895 1.47959 8.72934 1.73178 9.95267C1.98397 11.176 2.58862 12.2988 3.47119 13.1827C4.35377 14.0665 5.47568 14.6728 6.69865 14.9268C7.92161 15.1807 9.19216 15.0713 10.3537 14.6119C11.5152 14.1526 12.5169 13.3634 13.2353 12.3416C13.9538 11.3198 14.3575 10.1102 14.3968 8.86175L15.896 7.36415C15.9653 7.78549 16 8.21749 16 8.66015C16 10.2424 15.5308 11.7891 14.6518 13.1047C13.7727 14.4203 12.5233 15.4457 11.0615 16.0512C9.59966 16.6567 7.99113 16.8151 6.43928 16.5064C4.88743 16.1978 3.46197 15.4358 2.34315 14.317C1.22433 13.1982 0.462403 11.7727 0.153721 10.2209C-0.15496 8.66903 0.00346627 7.0605 0.608967 5.59869C1.21447 4.13688 2.23985 2.88745 3.55544 2.0084C4.87103 1.12935 6.41775 0.660156 8 0.660156ZM15.1056 1.55936C14.8212 1.27494 14.4836 1.04932 14.112 0.895397C13.7405 0.74147 13.3422 0.662244 12.94 0.662244C12.5378 0.662244 12.1395 0.74147 11.768 0.895397C11.3964 1.04932 11.0588 1.27494 10.7744 1.55936L6.64 5.69375C6.55294 5.78104 6.48723 5.88728 6.448 6.00416L4.8736 10.6762C4.82134 10.8314 4.81344 10.9981 4.85076 11.1575C4.88809 11.317 4.96918 11.4629 5.0849 11.5788C5.20062 11.6946 5.34638 11.7759 5.50579 11.8135C5.66519 11.8511 5.83192 11.8434 5.9872 11.7914L10.6592 10.2202C10.7767 10.1811 10.8835 10.1154 10.9712 10.0282L15.1056 5.89215C15.39 5.60778 15.6156 5.27016 15.7696 4.89859C15.9235 4.52701 16.0027 4.12875 16.0027 3.72656C16.0027 3.32436 15.9235 2.9261 15.7696 2.55452C15.6156 2.18295 15.39 1.84373 15.1056 1.55936Z" fill="#94A3B8"/>
</svg>
