<svg width="18" height="20" viewBox="0 0 18 20" fill="none" xmlns="http://www.w3.org/2000/svg">
<path d="M8.63779 2.609L8.63839 2.60841C9.53577 1.72864 10.7436 1.23781 12.0003 1.24225C13.257 1.24669 14.4613 1.74604 15.3525 2.63213C15.7953 3.07245 16.1468 3.59598 16.3866 4.17261C16.6264 4.74923 16.7499 5.36758 16.7499 5.99209C16.7499 6.6166 16.6264 7.23494 16.3866 7.81156C16.1469 8.38796 15.7956 8.9113 15.353 9.35151C15.353 9.35154 15.353 9.35156 15.3529 9.35158C15.3528 9.35174 15.3526 9.35189 15.3525 9.35205L6.69291 17.9796C6.69283 17.9797 6.69274 17.9798 6.69266 17.9799C6.19104 18.48 5.5116 18.7608 4.80326 18.7608C4.0948 18.7608 3.41526 18.4799 2.91361 17.9796C2.66554 17.7328 2.46866 17.4393 2.33427 17.1162C2.19975 16.7927 2.13049 16.4458 2.13049 16.0955C2.13049 15.7452 2.19974 15.3983 2.33428 15.0748C2.46872 14.7515 2.66571 14.458 2.91393 14.2111L8.63779 2.609ZM8.63779 2.609L1.97751 9.15327L1.97592 9.15484C1.92876 9.20146 1.86502 9.22743 1.79872 9.22706C1.73242 9.22668 1.66898 9.19999 1.62236 9.15284L1.62157 9.15205C1.59891 9.1292 1.58099 9.10211 1.56884 9.07232L0.874348 9.35547L1.56884 9.07231C1.5567 9.04252 1.55056 9.01062 1.55079 8.97845C1.55102 8.94627 1.5576 8.91446 1.57017 8.88485C1.58274 8.85523 1.60104 8.82839 1.62402 8.80587L1.62476 8.80515L8.28276 2.26315C8.28285 2.26306 8.28294 2.26297 8.28303 2.26288C9.27502 1.2893 10.6107 0.745763 12.0006 0.750025C13.3906 0.754287 14.723 1.30608 15.709 2.28584C16.1975 2.77136 16.5851 3.34868 16.8496 3.98457C17.1142 4.62046 17.2503 5.30237 17.2503 5.99109C17.2503 6.6798 17.1142 7.36172 16.8496 7.99761C16.5851 8.6335 16.1975 9.21081 15.709 9.69633L15.7085 9.69683L7.04463 18.3247C6.44842 18.9173 5.64192 19.25 4.80126 19.25C3.9606 19.25 3.1541 18.9173 2.55788 18.3247C2.26416 18.0325 2.03107 17.6852 1.87201 17.3027L1.17949 17.5907L1.87201 17.3027C1.71292 16.9201 1.63103 16.5098 1.63103 16.0955C1.63103 15.6812 1.71292 15.2709 1.87201 14.8883C2.0311 14.5057 2.26423 14.1583 2.55802 13.8662L2.55836 13.8658L10.6387 5.81951L10.639 5.81922C10.6858 5.7725 10.7493 5.74626 10.8155 5.74626C10.8817 5.74626 10.9452 5.77249 10.992 5.81922L10.9921 5.81924C11.0148 5.84192 11.0329 5.86885 11.0452 5.89851L11.7378 5.61094L11.0452 5.89852C11.0575 5.92818 11.0638 5.95997 11.0638 5.99209C11.0638 6.0242 11.0575 6.056 11.0452 6.08566C11.0329 6.11524 11.0149 6.1421 10.9923 6.16473C10.9922 6.1648 10.9921 6.16486 10.9921 6.16493L2.91439 14.2106L8.63779 2.609Z" stroke="#1C3C84" stroke-width="1.5"/>
</svg>
