<svg width="21" height="20" viewBox="0 0 21 20" fill="none" xmlns="http://www.w3.org/2000/svg">
<path d="M17.8008 1H3.80078C2.69621 1 1.80078 1.89543 1.80078 3V17C1.80078 18.1046 2.69621 19 3.80078 19H17.8008C18.9054 19 19.8008 18.1046 19.8008 17V3C19.8008 1.89543 18.9054 1 17.8008 1Z" stroke="#1C3C84" stroke-width="1.8" stroke-linecap="round" stroke-linejoin="round"/>
<path d="M7.80078 9C8.90535 9 9.80078 8.10457 9.80078 7C9.80078 5.89543 8.90535 5 7.80078 5C6.69621 5 5.80078 5.89543 5.80078 7C5.80078 8.10457 6.69621 9 7.80078 9Z" stroke="#1C3C84" stroke-width="1.8" stroke-linecap="round" stroke-linejoin="round"/>
<path d="M19.8008 13L16.7148 9.914C16.3397 9.53906 15.8311 9.32843 15.3008 9.32843C14.7705 9.32843 14.2618 9.53906 13.8868 9.914L4.80078 19" stroke="#1C3C84" stroke-width="1.8" stroke-linecap="round" stroke-linejoin="round"/>
</svg>
