<svg width="23" height="12" viewBox="0 0 23 12" fill="none" xmlns="http://www.w3.org/2000/svg">
<path d="M17.3008 0.5H14.0008C13.3958 0.5 12.9008 0.995 12.9008 1.6C12.9008 2.205 13.3958 2.7 14.0008 2.7H17.3008C19.1158 2.7 20.6008 4.185 20.6008 6C20.6008 7.815 19.1158 9.3 17.3008 9.3H14.0008C13.3958 9.3 12.9008 9.795 12.9008 10.4C12.9008 11.005 13.3958 11.5 14.0008 11.5H17.3008C20.3368 11.5 22.8008 9.036 22.8008 6C22.8008 2.964 20.3368 0.5 17.3008 0.5ZM7.40078 6C7.40078 6.605 7.89578 7.1 8.50078 7.1H15.1008C15.7058 7.1 16.2008 6.605 16.2008 6C16.2008 5.395 15.7058 4.9 15.1008 4.9H8.50078C7.89578 4.9 7.40078 5.395 7.40078 6ZM9.60078 9.3H6.30078C4.48578 9.3 3.00078 7.815 3.00078 6C3.00078 4.185 4.48578 2.7 6.30078 2.7H9.60078C10.2058 2.7 10.7008 2.205 10.7008 1.6C10.7008 0.995 10.2058 0.5 9.60078 0.5H6.30078C3.26478 0.5 0.800781 2.964 0.800781 6C0.800781 9.036 3.26478 11.5 6.30078 11.5H9.60078C10.2058 11.5 10.7008 11.005 10.7008 10.4C10.7008 9.795 10.2058 9.3 9.60078 9.3Z" fill="#1C3C84"/>
</svg>
