<svg width="16" height="16" viewBox="0 0 16 16" fill="none" xmlns="http://www.w3.org/2000/svg">
<path d="M16 8V14.2222C16 14.6937 15.8127 15.1459 15.4793 15.4793C15.1459 15.8127 14.6937 16 14.2222 16H1.77778C1.30628 16 0.854097 15.8127 0.520699 15.4793C0.187301 15.1459 0 14.6937 0 14.2222V8H16ZM11.5556 0C11.7913 0 12.0174 0.0936505 12.1841 0.260349C12.3508 0.427048 12.4444 0.653141 12.4444 0.888889V1.77778H14.2222C14.6937 1.77778 15.1459 1.96508 15.4793 2.29848C15.8127 2.63187 16 3.08406 16 3.55556V6.22222H0V3.55556C0 3.08406 0.187301 2.63187 0.520699 2.29848C0.854097 1.96508 1.30628 1.77778 1.77778 1.77778H3.55556V0.888889C3.55556 0.653141 3.64921 0.427048 3.81591 0.260349C3.9826 0.0936505 4.2087 0 4.44444 0C4.68019 0 4.90628 0.0936505 5.07298 0.260349C5.23968 0.427048 5.33333 0.653141 5.33333 0.888889V1.77778H10.6667V0.888889C10.6667 0.653141 10.7603 0.427048 10.927 0.260349C11.0937 0.0936505 11.3198 0 11.5556 0Z" fill="#1C3C84"/>
</svg>
